<svg xmlns="http://www.w3.org/2000/svg" id="Layer_1" data-name="Layer 1" viewBox="0 0 2388 506"><title>BBLogoWhite</title><g id="Layer_2" data-name="Layer 2"><path d="M439,.4l.2-.2a3.93,3.93,0,0,1,.6.2c1.4.4,2.8.9,4.2,1.3,32.3,8.9,61.1,24.2,85.9,46.9,14,12.9,26,27.4,35.1,44.2a140.6,140.6,0,0,1,15.9,50.5c.9,7,.8,14.1.9,21.1a135.63,135.63,0,0,1-6.3,41.5c-6.5,21-17.5,39.3-32.1,55.7-.6.6-1.1,1.3-1.5,1.7,2,4.1,4,8,5.8,12s3.4,8.2,4.8,12.4a150.23,150.23,0,0,1,6.9,59.9,141,141,0,0,1-8.4,38.5c-7.9,21.3-20.3,39.6-36.2,55.6C490,466.8,460.5,484,427,494.2c-26.2,8-53.1,11.4-80.4,11.5-114.4.1-346.6,0-346.6,0L217.1,331.5H26.9a15.52,15.52,0,0,1,1.8-1.5c45.8-36.8,139.6-112.1,139.6-112.1H343.5c10.7,0,21.3-.1,31.9-1a177.42,177.42,0,0,0,26.3-3.9c9-2.1,17.3-5.4,24.6-11.3,6.6-5.3,11.9-11.6,15.1-19.5a49.26,49.26,0,0,0,3.4-14.1c.7-8.7.2-17.2-3-25.4-5.2-13.6-15.4-22.4-28.3-28.3-7.3-3.3-15.2-4.7-23.1-5.9a271.08,271.08,0,0,0-37.1-2.6c-14.3-.1-28.5,0-42.8,0-.7,0-1.4,0-2.6-.1a13.34,13.34,0,0,1,1.7-1.4l108-86.7C424.8,12,439,.4,439,.4Z" style="fill:#fff"/><path d="M812.6,498.3H729.1l2.5-8.8a89.65,89.65,0,0,1-16.7,8.3,138.22,138.22,0,0,1-18.2,5.4,97.11,97.11,0,0,1-22.1,2.5q-37.8,0-59.4-12T584,462.8a87.58,87.58,0,0,1-9.3-41.5,192.52,192.52,0,0,1,5.6-44.2,250.18,250.18,0,0,1,21.6-56.2,167.53,167.53,0,0,1,33.9-44.4A151.38,151.38,0,0,1,683,247q27-10.8,61.9-10.8,32.4,0,56.9,3.9c16.4,2.6,29.9,5.7,40.7,9.3a163.75,163.75,0,0,1,32.9,13.7ZM663.8,375.1a166.08,166.08,0,0,0-4.9,24.3,60.81,60.81,0,0,0,1,22.3,36.13,36.13,0,0,0,10.3,17.9c5.2,5.1,13.1,8.8,23.6,11a43.88,43.88,0,0,0,19.4.5,54.42,54.42,0,0,0,16.4-5.9,68.57,68.57,0,0,0,15.7-10.3l35.8-133.5q-5.4-3-10.8-5.4a85.54,85.54,0,0,0-11.8-4.2,57,57,0,0,0-14.2-1.7c-12.8,0-23.6,2.8-32.6,8.3a85.38,85.38,0,0,0-23.1,20.9,114.09,114.09,0,0,0-15.5,27.5A265.19,265.19,0,0,0,663.8,375.1Z" style="fill:#fff"/><path d="M934.8,261.2a222.25,222.25,0,0,1,37.8-12.8,416.37,416.37,0,0,1,44.7-8.8q26-3.9,59.4-3.9c4.9,0,10.2.2,16,.7s10.9,1,15.5,1.5,8.3,1.1,11.3,1.7a29.12,29.12,0,0,1,3.9,1l-15.2,57.9a40.77,40.77,0,0,0-8.8-2.9,130.93,130.93,0,0,0-13-2.5c-4.7-.7-9.7-1.2-15-1.7s-10-.7-14.2-.7a85.4,85.4,0,0,0-20.1,2.2,137.58,137.58,0,0,0-16,4.7,74.3,74.3,0,0,0-10.6,4.7q-3.9,2.25-3.9,2.7L955,498.3H872Z" style="fill:#fff"/><path d="M1185.7,160.1c12.1-3.6,25.5-6.9,40.3-9.8,12.4-2.6,27.2-5,44.4-7.1a469.36,469.36,0,0,1,56.7-3.2q33.9,0,60.1,7.6t43.2,21.1c11.3,9,19.1,19.8,23.3,32.4s4.4,26.4.5,41.5a78.85,78.85,0,0,1-23.6,38.5,191.5,191.5,0,0,1-33.9,24.8,59.27,59.27,0,0,1,19.1,14.2,64.14,64.14,0,0,1,12,19.9,76.18,76.18,0,0,1,4.7,23.6,88.28,88.28,0,0,1-2.9,25.3,131.06,131.06,0,0,1-25,48.1,163.4,163.4,0,0,1-43,36.8,214.46,214.46,0,0,1-56.7,23.3,264.11,264.11,0,0,1-66.3,8.1q-32.4,0-58.7-2c-17.5-1.3-32.4-2.9-44.7-4.7s-25-4.2-38-7.1Zm156.1,228.8c3.6-13.4,3.4-23.2-.7-29.5s-11.3-10.5-21.6-12.8-23.2-3.3-38.8-2.9-33.1.3-52.8,0l-25,92.8c3.6.7,7.9,1.3,12.8,2a119.42,119.42,0,0,0,14.2,1.5c5.6.3,11.6.5,18.2.5a162.05,162.05,0,0,0,32.2-3.2,108.7,108.7,0,0,0,28-9.6,75,75,0,0,0,21.4-16A54.56,54.56,0,0,0,1341.8,388.9Zm19.7-141.4c2.6-9.5,2.5-17.1-.5-22.8a32.63,32.63,0,0,0-12.8-13.5,51,51,0,0,0-18.9-6.4,138.24,138.24,0,0,0-19.4-1.5,143.26,143.26,0,0,0-31.9,3.2c-9.2,2.1-13.9,3.2-14.2,3.2l-20.1,75.6c11.5,0,23.5.2,36.1.7a174.43,174.43,0,0,0,35.3-2,76.88,76.88,0,0,0,29.2-10.8C1352.8,267.8,1358.5,259.3,1361.5,247.5Z" style="fill:#fff"/><path d="M1542.6,391.8a66.68,66.68,0,0,0-1.5,20.9,39.44,39.44,0,0,0,6.9,19.1c3.9,5.7,9.6,10.5,17.2,14.2s17.5,5.6,29.9,5.6a153.32,153.32,0,0,0,27.2-2.7c10-1.8,20-4,29.9-6.6s19.7-5.5,29.2-8.6,18-6.1,25.5-9.1l-29.5,65.8c-.3.7-3.8,1.8-10.3,3.4s-14.9,3.4-25,5.2-21.4,3.4-33.9,4.7a348.44,348.44,0,0,1-36.3,2c-22.3,0-41.3-3.1-57.2-9.3s-28.5-15.1-37.8-26.8-15.1-25.9-17.2-42.7-.4-35.9,5.2-57.2q8.85-32.85,26.5-57.9a182.92,182.92,0,0,1,40.7-42,169.7,169.7,0,0,1,50.6-25.5,185.71,185.71,0,0,1,55.5-8.6c18,0,33.7,2.8,47.1,8.3s24.3,13.3,32.6,23.1a87.55,87.55,0,0,1,17.7,34.1,113.78,113.78,0,0,1,2.7,41.5c-1,7.9-2.4,15.9-4.2,24.1a142.33,142.33,0,0,1-8.1,25Zm117.3-51a89.16,89.16,0,0,0,1.5-20.1,36,36,0,0,0-4.4-16.2,26.46,26.46,0,0,0-12-10.8c-5.4-2.6-12.4-3.9-20.9-3.9-17.4,0-31.3,4.6-42,13.7s-19.2,21.6-25.8,37.3Z" style="fill:#fff"/><path d="M1800.4,263.2q27-8.4,49.1-13.5t50.1-9.3a386.81,386.81,0,0,1,57.4-4.2c17.3,0,31.5,1.6,42.5,4.7s19.6,7.4,26,12.8a43.92,43.92,0,0,1,13.3,18.2,59.69,59.69,0,0,1,3.7,21.1,105.39,105.39,0,0,1-2.2,21.8c-1.5,7.2-3,13.9-4.7,20.1l-43.7,163.5h-83.5l36.8-137.5q3.45-13.2,6.6-25.8a73.57,73.57,0,0,0,2.5-22.3,22.5,22.5,0,0,0-7.9-16c-4.7-4.1-12.8-6.1-24.3-6.1a94.53,94.53,0,0,0-17.9,1.7,111.53,111.53,0,0,0-15.5,4.2,95.93,95.93,0,0,0-14.7,5.9l-52.5,195.9h-83Z" style="fill:#fff"/><path d="M2299.6,478.7a263.22,263.22,0,0,1-40.3,13.7,403.74,403.74,0,0,1-45.9,9.6,352,352,0,0,1-59.2,3.7q-34.8,0-56-11T2067,465.2c-6.7-12.3-10.1-26.5-10.3-42.7s2.2-33.3,7.1-51.3a232.59,232.59,0,0,1,18.9-49.3,165,165,0,0,1,32.2-43.4q19.65-19.2,47.6-30.9,28-11.85,65.8-11.8a117.78,117.78,0,0,1,20.9,1.7,81.63,81.63,0,0,1,15.5,4.2,96.86,96.86,0,0,1,13.3,5.4l26.5-98.7H2388ZM2146.9,371.2a166.89,166.89,0,0,0-5.6,26.3,68.75,68.75,0,0,0,.7,24.1,36.47,36.47,0,0,0,10.6,18.9q8.1,7.8,24.3,10.8a39.29,39.29,0,0,0,17.4,0,133.23,133.23,0,0,0,16-4.4,83.69,83.69,0,0,0,15.7-7.4l37.3-138q-5.4-3-10.8-5.4a53.37,53.37,0,0,0-11.3-3.9,94.62,94.62,0,0,0-13.3-2c-13.1,0-24.2,2.7-33.4,8.1a81.65,81.65,0,0,0-23.3,20.4,116.55,116.55,0,0,0-15.5,26.3A187.66,187.66,0,0,0,2146.9,371.2Z" style="fill:#fff"/></g></svg>